:SAMPLES-PER-SECOND 30
:FULLY-SPECIFIED
:DEGREES
406
root  -12.8582 34.5975 -16.8982 -171.669 2.40353 179.803
RightUpLeg  -9.62178 -13.02 -1.09507
RightLeg  7.29912 -0.509658 -0.0310569
RightFoot  3.98383 0.00804201 0.103072
RightToes  -24.3722 -0.108165 -0.209974
Spine  -2.41787 0.204002 0.367431
Spine1  -4.92254 0.496593 1.30197
HEad  -64.1002 1.69725 6.00103
LeftShoulder1  -1.94126e-019 -3.10601e-018 -2.51263e-017
LeftArm  -11.6092 25.6298 -83.2038
LeftForeArm  32.2771 -13.8813 -2.30445
LeftHand  -0.310453 -0.670637 5.92853
RightShoulder  -4.96962e-017 0 -2.36833e-017
RightArm  -25.9757 -24.5432 77.5132
RightForeArm  47.2491 14.2409 1.38502
RightHand  -0.211378 -2.63035 -8.44173
LeftUpLeg  -7.29084 3.93133 0.574603
LeftLeg  6.76434 14.7266 0.783382
LeftFoot  3.2522 -0.0311046 0.976119
LeftToes  -18.2421 1.48347e-006 1.01831e-007
407
root  -12.8542 34.5971 -16.917 -171.628 2.29749 179.791
RightUpLeg  -9.59885 -13.0849 -1.09352
RightLeg  7.26371 -0.547482 -0.0331056
RightFoot  3.95257 0.00816693 0.101287
RightToes  -24.2768 -0.108165 -0.209825
Spine  -2.41678 0.180225 0.382758
Spine1  -4.92638 0.445723 1.33094
HEad  -64.1179 1.68727 5.92122
LeftShoulder1  -1.94126e-019 -3.10601e-018 -2.51263e-017
LeftArm  -11.6273 25.5144 -83.2266
LeftForeArm  32.2783 -14.1278 -2.34158
LeftHand  -0.309162 -0.691202 5.9967
RightShoulder  -4.96962e-017 0 -2.36833e-017
RightArm  -25.7294 -24.6584 77.3427
RightForeArm  47.2298 14.3265 1.37834
RightHand  -0.215597 -2.6169 -8.34427
LeftUpLeg  -7.30365 3.92037 0.575169
LeftLeg  6.74089 14.6307 0.77245
LeftFoot  3.24711 -0.0305745 0.967879
LeftToes  -18.1989 1.48347e-006 1.01831e-007
408
root  -12.8529 34.5964 -16.9387 -171.579 2.16385 179.781
RightUpLeg  -9.5542 -13.1782 -1.09115
RightLeg  7.18108 -0.600575 -0.0355562
RightFoot  3.98233 0.00852535 0.0961653
RightToes  -24.2107 -0.108165 -0.209785
Spine  -2.42113 0.162595 0.396017
Spine1  -4.93457 0.405939 1.35522
HEad  -64.1797 1.71035 5.83353
LeftShoulder1  -1.94126e-019 -3.10601e-018 -2.51263e-017
LeftArm  -11.6728 25.3827 -83.2602
LeftForeArm  32.3342 -14.3482 -2.37545
LeftHand  -0.308253 -0.71981 6.0405
RightShoulder  -4.96962e-017 0 -2.36833e-017
RightArm  -25.718 -24.7344 77.1755
RightForeArm  47.2979 14.2708 1.38149
RightHand  -0.215517 -2.67656 -8.43365
LeftUpLeg  -7.33427 3.85426 0.574768
LeftLeg  6.73814 14.5677 0.7685
LeftFoot  3.2354 -0.0300511 0.959744
LeftToes  -18.2177 1.48347e-006 1.01831e-007
409
root  -12.8517 34.5948 -16.9638 -171.516 1.99655 179.778
RightUpLeg  -9.47766 -13.3524 -1.07774
RightLeg  7.02404 -0.594069 -0.0335274
RightFoot  4.03436 0.00869459 0.0937469
RightToes  -24.0685 -0.108165 -0.209785
Spine  -2.4353 0.142758 0.410211
Spine1  -4.96242 0.361956 1.38038
HEad  -64.275 1.7659 5.78474
LeftShoulder1  -1.94126e-019 -3.10601e-018 -2.51263e-017
LeftArm  -11.6983 25.2724 -83.284
LeftForeArm  32.2848 -14.6389 -2.42072
LeftHand  -0.3088 -0.656298 5.96862
RightShoulder  -4.96962e-017 0 -2.36833e-017
RightArm  -25.8301 -24.822 77.0162
RightForeArm  47.3524 14.1863 1.38746
RightHand  -0.216522 -2.7072 -8.47918
LeftUpLeg  -7.38502 3.81363 0.58278
LeftLeg  6.74786 14.4476 0.764722
LeftFoot  3.22365 -0.029295 0.947992
LeftToes  -18.2271 1.48347e-006 1.01831e-007
410
root  -12.8476 34.5927 -16.9902 -171.446 1.83415 179.778
RightUpLeg  -9.40994 -13.543 -1.0571
RightLeg  6.86908 -0.584506 -0.0313874
RightFoot  4.09124 0.0087874 0.0924208
RightToes  -24.0368 -0.108165 -0.209785
Spine  -2.45162 0.13365 0.416525
Spine1  -4.99466 0.339712 1.3892
HEad  -64.1981 1.80707 5.72296
LeftShoulder1  -1.94126e-019 -3.10601e-018 -2.51263e-017
LeftArm  -11.7275 25.1588 -83.2745
LeftForeArm  32.376 -14.8532 -2.45601
LeftHand  -0.310132 -0.749066 5.89088
RightShoulder  -4.96962e-017 0 -2.36833e-017
RightArm  -26.101 -24.865 76.9092
RightForeArm  47.5275 14.0186 1.39841
RightHand  -0.216537 -2.78424 -8.55912
LeftUpLeg  -7.44673 3.78577 0.597869
LeftLeg  6.77191 14.3228 0.764209
LeftFoot  3.22114 -0.0286836 0.938488
LeftToes  -18.3102 1.48347e-006 1.01831e-007
411
root  -12.8425 34.5898 -17.0193 -171.368 1.69258 179.792
RightUpLeg  -9.35212 -13.7341 -1.0197
RightLeg  6.7238 -0.518334 -0.0263941
RightFoot  4.13865 0.00883388 0.0917567
RightToes  -24.0449 -0.108165 -0.209785
Spine  -2.47378 0.131145 0.412801
Spine1  -5.03851 0.333098 1.37863
HEad  -64.0846 1.87457 5.69762
LeftShoulder1  -1.94126e-019 -3.10601e-018 -2.51263e-017
LeftArm  -11.7053 25.0773 -83.2608
LeftForeArm  32.3725 -15.0317 -2.48512
LeftHand  -0.307851 -0.714283 5.97905
RightShoulder  -4.96962e-017 0 -2.36833e-017
RightArm  -26.4301 -24.8908 76.8637
RightForeArm  47.8668 13.8355 1.40817
RightHand  -0.215655 -2.81282 -8.64564
LeftUpLeg  -7.50558 3.87153 0.628207
LeftLeg  6.78577 14.1022 0.756049
LeftFoot  3.19411 -0.0273281 0.91742
LeftToes  -18.3331 1.48347e-006 1.01831e-007
412
root  -12.8335 34.5878 -17.0503 -171.285 1.57332 179.811
RightUpLeg  -9.2996 -13.8721 -0.973042
RightLeg  6.57788 -0.511767 -0.0247438
RightFoot  4.19953 0.00886414 0.0913242
RightToes  -24.087 -0.108165 -0.209785
Spine  -2.50672 0.131414 0.406043
Spine1  -5.10386 0.342554 1.36209
HEad  -64.0074 1.87403 5.63959
LeftShoulder1  -1.94126e-019 -3.10601e-018 -2.51263e-017
LeftArm  -11.6867 25.022 -83.2393
LeftForeArm  32.3843 -15.1389 -2.50476
LeftHand  -0.306869 -0.682563 5.98582
RightShoulder  -4.96962e-017 0 -2.36833e-017
RightArm  -26.7826 -24.9096 76.8572
RightForeArm  48.2555 13.6713 1.41608
RightHand  -0.213825 -2.76384 -8.72576
LeftUpLeg  -7.56263 3.95784 0.668811
LeftLeg  6.79436 13.9026 0.747618
LeftFoot  3.16555 -0.0260674 0.897825
LeftToes  -18.399 1.48347e-006 1.01831e-007
413
root  -12.8217 34.5872 -17.079 -171.196 1.41702 179.83
RightUpLeg  -9.24553 -13.9804 -0.919447
RightLeg  6.43166 -0.566855 -0.026082
RightFoot  4.21905 0.00890832 0.0906929
RightToes  -24.0152 -0.108165 -0.209785
Spine  -2.5391 0.133459 0.389149
Spine1  -5.16822 0.337904 1.32662
HEad  -64.0509 1.8489 5.59121
LeftShoulder1  -1.94126e-019 -3.10601e-018 -2.51263e-017
LeftArm  -11.5909 25.0042 -83.1994
LeftForeArm  32.215 -15.3294 -2.53378
LeftHand  -0.306354 -0.523408 5.92306
RightShoulder  -4.96962e-017 0 -2.36833e-017
RightArm  -26.9555 -24.9442 76.9065
RightForeArm  48.3752 13.6423 1.4167
RightHand  -0.214835 -2.75167 -8.66557
LeftUpLeg  -7.61787 3.91817 0.714321
LeftLeg  6.77834 13.798 0.738267
LeftFoot  3.16814 -0.0257046 0.892185
LeftToes  -18.4858 1.48347e-006 1.01831e-007
414
root  -12.8105 34.5875 -17.1037 -171.123 1.26427 179.856
RightUpLeg  -9.21594 -14.1105 -0.863838
RightLeg  6.35054 -0.5846 -0.0261069
RightFoot  4.20469 0.00895406 0.0900393
RightToes  -23.9976 -0.108165 -0.209785
Spine  -2.55637 0.136284 0.369942
Spine1  -5.20269 0.33965 1.28806
HEad  -64.1486 1.82614 5.54385
LeftShoulder1  -1.94126e-019 -3.10601e-018 -2.51263e-017
LeftArm  -11.526 24.9799 -83.1711
LeftForeArm  32.2422 -15.3542 -2.5363
LeftHand  -0.30507 -0.611566 5.96549
RightShoulder  -4.96962e-017 0 -2.36833e-017
RightArm  -26.8819 -24.9731 76.9943
RightForeArm  48.3167 13.7361 1.40903
RightHand  -0.211886 -2.76245 -8.70384
LeftUpLeg  -7.65682 3.86255 0.765955
LeftLeg  6.7519 13.7087 0.727298
LeftFoot  3.16122 -0.0252842 0.885652
LeftToes  -18.5325 1.48347e-006 1.01831e-007
415
root  -12.7998 34.5897 -17.1256 -171.077 1.11987 179.877
RightUpLeg  -9.19142 -14.1511 -0.818673
RightLeg  6.32748 -0.675235 -0.0300524
RightFoot  4.17083 0.0094493 0.0829629
RightToes  -23.9538 -0.108165 -0.209785
Spine  -2.56301 0.141388 0.348017
Spine1  -5.21589 0.352484 1.24553
HEad  -64.2539 1.76761 5.44082
LeftShoulder1  -1.94126e-019 -3.10601e-018 -2.51263e-017
LeftArm  -11.4243 24.9709 -83.163
LeftForeArm  32.2067 -15.4143 -2.54468
LeftHand  -0.304919 -0.568046 5.89761
RightShoulder  -4.96962e-017 0 -2.36833e-017
RightArm  -26.7845 -24.9329 77.093
RightForeArm  48.2323 13.8149 1.40323
RightHand  -0.208637 -2.7361 -8.68672
LeftUpLeg  -7.65217 3.79177 0.813804
LeftLeg  6.68258 13.644 0.707539
LeftFoot  3.17083 -0.0252402 0.884967
LeftToes  -18.5076 1.48347e-006 1.01831e-007
416
root  -12.7904 34.5942 -17.1461 -171.044 0.987701 179.894
RightUpLeg  -9.15216 -14.1223 -0.784101
RightLeg  6.29372 -0.827587 -0.0365912
RightFoot  4.14784 0.00991843 0.0762593
RightToes  -23.8484 -0.108165 -0.209785
Spine  -2.56668 0.145434 0.320228
Spine1  -5.22322 0.364393 1.19324
HEad  -64.5435 1.77222 5.39799
LeftShoulder1  -1.94126e-019 -3.10601e-018 -2.51263e-017
LeftArm  -11.3623 24.9677 -83.1541
LeftForeArm  32.1883 -15.3666 -2.53869
LeftHand  -0.302621 -0.626051 5.97324
RightShoulder  -4.96962e-017 0 -2.36833e-017
RightArm  -26.5992 -24.8658 77.2254
RightForeArm  48.049 13.9195 1.39713
RightHand  -0.201065 -2.8249 -8.62603
LeftUpLeg  -7.62379 3.7275 0.85541
LeftLeg  6.58508 13.5917 0.681916
LeftFoot  3.23382 -0.0261 0.898331
LeftToes  -18.6011 1.48347e-006 1.01831e-007
417
root  -12.7807 34.5979 -17.1669 -171.01 0.878174 179.911
RightUpLeg  -9.11181 -14.2093 -0.746022
RightLeg  6.23772 -0.859378 -0.0371996
RightFoot  4.15236 0.00997791 0.0754093
RightToes  -23.7877 -0.108165 -0.209785
Spine  -2.57403 0.155689 0.293704
Spine1  -5.23838 0.38918 1.14277
HEad  -64.7672 1.80791 5.29013
LeftShoulder1  -1.94126e-019 -3.10601e-018 -2.51263e-017
LeftArm  -11.3134 25.0041 -83.1373
LeftForeArm  32.092 -15.3266 -2.53012
LeftHand  -0.30138 -0.590467 5.95186
RightShoulder  -4.96962e-017 0 -2.36833e-017
RightArm  -26.4456 -24.791 77.3713
RightForeArm  47.9309 14.0362 1.38888
RightHand  -0.197263 -2.87259 -8.6041
LeftUpLeg  -7.60923 3.65466 0.894209
LeftLeg  6.51323 13.5679 0.663857
LeftFoot  3.28188 -0.0268318 0.909705
LeftToes  -18.5673 1.48347e-006 1.01831e-007
418
root  -12.7714 34.5983 -17.1915 -170.954 0.817993 179.936
RightUpLeg  -9.09954 -14.2532 -0.6939
RightLeg  6.19073 -0.882764 -0.0353578
RightFoot  4.16399 0.00984574 0.077298
RightToes  -23.7683 -0.108165 -0.209785
Spine  -2.59472 0.181556 0.27604
Spine1  -5.28047 0.445323 1.10614
HEad  -64.8763 1.8959 5.07541
LeftShoulder1  -1.94126e-019 -3.10601e-018 -2.51263e-017
LeftArm  -11.3849 25.0563 -83.1316
LeftForeArm  32.0342 -15.1737 -2.50513
LeftHand  -0.298977 -0.565285 5.92766
RightShoulder  -4.96962e-017 0 -2.36833e-017
RightArm  -26.2096 -24.746 77.4907
RightForeArm  47.6933 14.196 1.37952
RightHand  -0.198638 -2.84682 -8.58431
LeftUpLeg  -7.63375 3.5428 0.938329
LeftLeg  6.50458 13.6191 0.66428
LeftFoot  3.33651 -0.0279521 0.927119
LeftToes  -18.5427 1.48347e-006 1.01831e-007
419
root  -12.7593 34.5972 -17.2176 -170.891 0.786926 179.964
RightUpLeg  -9.07758 -14.2905 -0.641439
RightLeg  6.11713 -0.870564 -0.0358687
RightFoot  4.14345 0.00969126 0.0795053
RightToes  -23.634 -0.108165 -0.209785
Spine  -2.61994 0.221042 0.270309
Spine1  -5.33113 0.528294 1.09117
HEad  -64.8996 2.00767 4.71687
LeftShoulder1  -1.94126e-019 -3.10601e-018 -2.51263e-017
LeftArm  -11.5065 25.114 -83.1382
LeftForeArm  32.0599 -14.9599 -2.46963
LeftHand  -0.297205 -0.621713 5.90167
RightShoulder  -4.96962e-017 0 -2.36833e-017
RightArm  -25.9549 -24.7241 77.5732
RightForeArm  47.4322 14.3838 1.36918
RightHand  -0.200322 -2.82011 -8.52516
LeftUpLeg  -7.67194 3.61438 0.982886
LeftLeg  6.51824 13.531 0.663259
LeftFoot  3.36038 -0.0280491 0.928627
LeftToes  -18.6239 1.48347e-006 1.01831e-007
420
root  -12.7464 34.5958 -17.2413 -170.832 0.75528 179.997
RightUpLeg  -9.05367 -14.3406 -0.580181
RightLeg  6.03576 -0.848626 -0.0337352
RightFoot  4.14931 0.00968386 0.0796111
RightToes  -23.716 -0.108165 -0.209785
Spine  -2.6526 0.257186 0.271671
Spine1  -5.39616 0.604841 1.09063
HEad  -64.8453 2.17812 4.26589
LeftShoulder1  -1.94126e-019 -3.10601e-018 -2.51263e-017
LeftArm  -11.5606 25.2001 -83.1514
LeftForeArm  32.0551 -14.765 -2.43928
LeftHand  -0.294498 -0.618081 5.91694
RightShoulder  -4.96962e-017 0 -2.36833e-017
RightArm  -25.6568 -24.7019 77.6248
RightForeArm  47.1964 14.5491 1.36134
RightHand  -0.202381 -2.81457 -8.44972
LeftUpLeg  -7.70173 3.7416 1.03956
LeftLeg  6.52704 13.3733 0.657699
LeftFoot  3.34859 -0.0273158 0.917229
LeftToes  -18.6823 1.48347e-006 1.01831e-007
